<?xml version="1.0" standalone="no"?>
<!DOCTYPE svg PUBLIC "-//W3C//DTD SVG 20010904//EN"
 "http://www.w3.org/TR/2001/REC-SVG-20010904/DTD/svg10.dtd">
<svg version="1.0" xmlns="http://www.w3.org/2000/svg"
 width="564.000000pt" height="128.000000pt" viewBox="0 0 564.000000 128.000000"
 preserveAspectRatio="xMidYMid meet">
<metadata>
Created by potrace 1.15, written by Peter Selinger 2001-2017
</metadata>
<g transform="translate(0.000000,128.000000) scale(0.100000,-0.100000)"
fill="#000000" stroke="none">
<path d="M64 1270 c-12 -5 -31 -22 -43 -38 -21 -30 -21 -35 -21 -594 l0 -564
29 -34 29 -35 582 0 582 0 29 35 29 34 0 566 0 566 -29 34 -29 35 -568 2
c-313 1 -579 -2 -590 -7z"/>
<path d="M4633 1042 c-9 -6 -10 -24 -3 -72 19 -142 22 -314 6 -478 -20 -215
-12 -235 91 -230 l58 3 -5 75 c-8 119 -6 414 4 542 l9 116 -26 26 c-21 21 -36
26 -74 26 -26 0 -53 -4 -60 -8z"/>
<path d="M5183 1042 c-9 -6 -10 -24 -3 -72 19 -142 22 -314 6 -478 -20 -215
-12 -235 91 -230 l58 3 -5 75 c-8 119 -6 414 4 542 l9 116 -26 26 c-21 21 -36
26 -74 26 -26 0 -53 -4 -60 -8z"/>
<path d="M4927 1033 c-39 -10 -51 -109 -17 -143 29 -29 91 -27 127 4 23 20 28
32 28 71 0 35 -5 50 -19 61 -19 13 -80 17 -119 7z"/>
<path d="M2006 1010 c-37 -5 -91 -14 -118 -21 l-50 -12 6 -41 c15 -94 18 -338
6 -465 -17 -186 -1 -215 110 -209 l55 3 -2 35 c-10 160 -14 542 -6 570 l9 35
67 3 c60 3 70 0 92 -22 30 -30 33 -81 9 -131 -19 -40 -48 -61 -109 -77 -25 -7
-45 -17 -45 -24 0 -23 41 -128 69 -177 80 -138 179 -227 252 -227 44 0 85 31
94 70 5 22 0 28 -39 49 -58 30 -129 101 -178 175 -21 33 -38 62 -38 66 0 4 14
13 30 20 47 19 108 96 126 156 26 92 -4 171 -79 204 -51 22 -168 31 -261 20z"/>
<path d="M3690 961 c-14 -4 -24 -14 -22 -22 2 -7 6 -44 9 -81 l6 -68 -32 0
c-44 0 -75 -33 -67 -73 8 -40 8 -40 52 -28 21 6 39 9 40 8 2 -2 -2 -50 -8
-107 -14 -143 -7 -221 25 -269 34 -52 94 -75 176 -69 75 5 101 26 101 79 0 48
-10 54 -53 33 -46 -22 -82 -12 -108 29 -18 29 -20 44 -16 147 3 63 8 123 12
132 6 15 18 17 70 15 79 -3 108 17 103 72 -3 33 -6 36 -33 36 -16 -1 -51 -4
-77 -9 l-48 -7 0 74 c0 60 -4 77 -19 91 -22 20 -76 28 -111 17z"/>
<path d="M2665 801 c-81 -20 -152 -88 -182 -175 -25 -73 -23 -206 4 -267 51
-114 200 -150 341 -82 89 42 121 128 66 172 -43 34 -69 28 -83 -18 -13 -45
-62 -91 -96 -91 -59 0 -105 51 -105 118 l0 29 83 5 c60 3 97 11 139 30 73 34
92 67 86 151 -4 52 -9 64 -36 88 -49 44 -135 60 -217 40z m106 -112 c14 -14
19 -30 17 -52 -2 -26 -9 -34 -38 -44 -19 -7 -59 -12 -89 -12 l-54 -1 7 48 c8
60 33 82 92 82 31 0 50 -6 65 -21z"/>
<path d="M3045 791 c-25 -5 -29 -11 -26 -31 2 -14 5 -124 5 -246 1 -171 4
-225 15 -237 10 -12 30 -17 72 -17 32 0 60 4 63 9 3 5 1 45 -6 89 -11 80 -11
80 21 148 34 72 88 145 126 170 19 12 28 13 46 4 21 -12 21 -17 15 -94 -3 -44
-9 -127 -13 -183 -6 -99 -5 -102 20 -127 21 -21 36 -26 74 -26 73 0 75 4 58
86 -12 54 -14 106 -9 236 l7 167 -31 30 c-60 60 -172 34 -257 -61 l-45 -50 0
42 c0 56 -13 77 -58 90 -20 5 -39 9 -42 9 -3 -1 -18 -4 -35 -8z"/>
<path d="M4175 782 c-23 -11 -60 -40 -83 -67 -58 -66 -84 -140 -86 -245 -1
-74 2 -91 24 -129 38 -67 70 -86 145 -86 59 0 67 3 101 35 20 19 50 55 65 79
l29 45 0 -60 c0 -81 16 -96 96 -92 68 3 63 -12 45 146 -11 97 -6 215 15 319 6
31 5 32 -47 48 -30 9 -101 19 -159 21 -89 4 -111 2 -145 -14z m186 -90 c15 -6
14 -14 -7 -77 -32 -96 -90 -207 -124 -240 -24 -23 -32 -26 -44 -15 -59 48 -41
295 24 327 26 13 124 16 151 5z"/>
<path d="M4926 793 c-27 -4 -28 -7 -22 -41 17 -99 17 -212 2 -319 -22 -159
-11 -178 100 -171 55 3 51 -11 38 130 -4 46 -2 126 6 201 16 149 11 173 -35
193 -19 8 -40 13 -47 13 -7 -1 -26 -4 -42 -6z"/>
</g>
</svg>
